<?xml version="1.0" standalone="no"?>
<!DOCTYPE svg PUBLIC "-//W3C//DTD SVG 20010904//EN"
 "http://www.w3.org/TR/2001/REC-SVG-20010904/DTD/svg10.dtd">
<svg version="1.0" xmlns="http://www.w3.org/2000/svg"
 width="408.000000pt" height="81.000000pt" viewBox="0 0 408.000000 81.000000"
 preserveAspectRatio="xMidYMid meet">

<g transform="translate(0.000000,81.000000) scale(0.100000,-0.100000)"
fill="#000000" stroke="none">
<path d="M0 537 c0 -324 4 -347 81 -431 67 -73 124 -100 214 -101 84 0 161 31
220 90 91 92 113 235 54 354 -56 112 -189 185 -303 167 -55 -9 -125 -42 -158
-73 l-28 -27 0 147 0 147 -40 0 -40 0 0 -273z m397 -22 c85 -42 125 -109 124
-207 -1 -203 -231 -301 -372 -159 -89 88 -93 222 -11 313 72 80 166 99 259 53z"/>
<path d="M2040 415 l0 -395 40 0 40 0 0 395 0 395 -40 0 -40 0 0 -395z"/>
<path d="M900 607 c-91 -26 -164 -89 -203 -176 -29 -64 -29 -179 0 -243 72
-159 255 -229 405 -155 64 32 120 90 151 157 28 63 29 178 0 241 -61 136 -218
214 -353 176z m153 -80 c90 -38 140 -116 141 -218 0 -53 -5 -74 -26 -110 -48
-81 -109 -119 -191 -119 -81 0 -149 41 -193 117 -50 84 -31 218 38 279 31 27
69 51 93 57 40 10 106 7 138 -6z"/>
<path d="M1580 607 c-91 -26 -173 -103 -206 -194 -7 -21 -13 -70 -14 -109 0
-121 68 -226 179 -278 66 -30 179 -28 241 3 61 31 116 86 148 146 23 43 27 62
27 135 0 73 -4 92 -27 135 -69 130 -217 199 -348 162z m166 -86 c51 -23 111
-93 125 -145 24 -89 -8 -188 -80 -248 -139 -117 -351 -6 -351 184 0 162 163
274 306 209z"/>
<path d="M2413 602 c-77 -27 -137 -81 -174 -157 -29 -60 -31 -70 -27 -147 6
-103 26 -146 103 -216 96 -88 213 -105 331 -47 58 28 126 98 143 145 l10 30
-45 0 c-24 0 -44 -4 -44 -10 0 -20 -66 -84 -105 -101 -106 -49 -245 1 -294
105 -37 80 -53 75 242 78 l262 3 -3 55 c-5 73 -31 129 -87 185 -84 85 -206
115 -312 77z m170 -73 c46 -13 109 -67 131 -113 32 -69 40 -66 -205 -66 l-221
0 6 28 c27 113 165 186 289 151z"/>
<path d="M3119 611 c-84 -17 -173 -93 -212 -180 -29 -64 -29 -179 0 -242 82
-182 303 -242 457 -124 l46 35 0 -46 0 -45 38 3 37 3 0 185 c0 215 -5 237 -76
314 -74 81 -187 119 -290 97z m149 -87 c87 -36 136 -115 136 -216 0 -56 -5
-74 -30 -114 -65 -105 -170 -140 -277 -91 -87 40 -129 108 -129 212 -1 74 25
129 79 174 62 51 150 65 221 35z"/>
<path d="M3773 609 c-60 -11 -95 -32 -140 -83 -57 -65 -63 -96 -63 -320 l0
-197 38 3 37 3 5 206 5 206 29 38 c78 102 222 96 297 -14 23 -35 24 -43 27
-239 l3 -202 35 0 34 0 0 210 c0 230 -4 249 -59 312 -55 63 -156 95 -248 77z"/>
</g>
</svg>
